<mxfile host="app.diagrams.net" modified="2024-05-11T14:31:27.538Z" agent="Mozilla/5.0 (X11; Linux x86_64; rv:127.0) Gecko/20100101 Firefox/127.0" etag="hQhZ8TYG379tAhg0NtDd" version="24.4.0" type="device">
  <diagram id="C5RBs43oDa-KdzZeNtuy" name="Page-1">
    <mxGraphModel dx="1434" dy="754" grid="1" gridSize="10" guides="1" tooltips="1" connect="1" arrows="1" fold="1" page="1" pageScale="1" pageWidth="827" pageHeight="1169" math="0" shadow="0">
      <root>
        <mxCell id="WIyWlLk6GJQsqaUBKTNV-0" />
        <mxCell id="WIyWlLk6GJQsqaUBKTNV-1" parent="WIyWlLk6GJQsqaUBKTNV-0" />
        <mxCell id="WIyWlLk6GJQsqaUBKTNV-2" value="" style="rounded=0;html=1;jettySize=auto;orthogonalLoop=1;fontSize=11;endArrow=block;endFill=0;endSize=8;strokeWidth=1;shadow=0;labelBackgroundColor=none;edgeStyle=orthogonalEdgeStyle;" parent="WIyWlLk6GJQsqaUBKTNV-1" source="WIyWlLk6GJQsqaUBKTNV-3" target="WIyWlLk6GJQsqaUBKTNV-6" edge="1">
          <mxGeometry relative="1" as="geometry" />
        </mxCell>
        <mxCell id="WIyWlLk6GJQsqaUBKTNV-3" value="start" style="rounded=1;whiteSpace=wrap;html=1;fontSize=12;glass=0;strokeWidth=1;shadow=0;" parent="WIyWlLk6GJQsqaUBKTNV-1" vertex="1">
          <mxGeometry x="330" y="70" width="120" height="40" as="geometry" />
        </mxCell>
        <mxCell id="WIyWlLk6GJQsqaUBKTNV-4" value="Yes" style="rounded=0;html=1;jettySize=auto;orthogonalLoop=1;fontSize=11;endArrow=block;endFill=0;endSize=8;strokeWidth=1;shadow=0;labelBackgroundColor=none;edgeStyle=orthogonalEdgeStyle;exitX=0;exitY=0.5;exitDx=0;exitDy=0;" parent="WIyWlLk6GJQsqaUBKTNV-1" source="WIyWlLk6GJQsqaUBKTNV-6" target="WIyWlLk6GJQsqaUBKTNV-10" edge="1">
          <mxGeometry x="-0.75" y="-10" relative="1" as="geometry">
            <mxPoint as="offset" />
          </mxGeometry>
        </mxCell>
        <mxCell id="WIyWlLk6GJQsqaUBKTNV-5" value="No" style="edgeStyle=orthogonalEdgeStyle;rounded=0;html=1;jettySize=auto;orthogonalLoop=1;fontSize=11;endArrow=block;endFill=0;endSize=8;strokeWidth=1;shadow=0;labelBackgroundColor=none;entryX=0.5;entryY=0;entryDx=0;entryDy=0;exitX=1;exitY=0.5;exitDx=0;exitDy=0;" parent="WIyWlLk6GJQsqaUBKTNV-1" source="WIyWlLk6GJQsqaUBKTNV-6" target="qETVqqP7taRen6nCok0K-2" edge="1">
          <mxGeometry x="-0.7" y="10" relative="1" as="geometry">
            <mxPoint as="offset" />
            <mxPoint x="490" y="200" as="targetPoint" />
          </mxGeometry>
        </mxCell>
        <mxCell id="WIyWlLk6GJQsqaUBKTNV-6" value="Order Matters" style="rhombus;whiteSpace=wrap;html=1;shadow=0;fontFamily=Helvetica;fontSize=12;align=center;strokeWidth=1;spacing=6;spacingTop=-4;" parent="WIyWlLk6GJQsqaUBKTNV-1" vertex="1">
          <mxGeometry x="340" y="160" width="100" height="80" as="geometry" />
        </mxCell>
        <mxCell id="WIyWlLk6GJQsqaUBKTNV-10" value="&lt;div&gt;Allow&lt;/div&gt;&lt;div&gt;Duplicates&lt;/div&gt;" style="rhombus;whiteSpace=wrap;html=1;shadow=0;fontFamily=Helvetica;fontSize=12;align=center;strokeWidth=1;spacing=6;spacingTop=-4;movable=1;resizable=1;rotatable=1;deletable=1;editable=1;locked=0;connectable=1;" parent="WIyWlLk6GJQsqaUBKTNV-1" vertex="1">
          <mxGeometry x="160" y="250" width="100" height="80" as="geometry" />
        </mxCell>
        <mxCell id="qETVqqP7taRen6nCok0K-2" value="&lt;div&gt;Allow&lt;/div&gt;&lt;div&gt;Duplicates&lt;/div&gt;" style="rhombus;whiteSpace=wrap;html=1;shadow=0;fontFamily=Helvetica;fontSize=12;align=center;strokeWidth=1;spacing=6;spacingTop=-4;movable=1;resizable=1;rotatable=1;deletable=1;editable=1;locked=0;connectable=1;" parent="WIyWlLk6GJQsqaUBKTNV-1" vertex="1">
          <mxGeometry x="550" y="240" width="100" height="80" as="geometry" />
        </mxCell>
        <mxCell id="qETVqqP7taRen6nCok0K-3" value="&lt;div&gt;store key&lt;/div&gt;&lt;div&gt;separate to&lt;/div&gt;&lt;div&gt;value&lt;br&gt;&lt;/div&gt;" style="rhombus;whiteSpace=wrap;html=1;shadow=0;fontFamily=Helvetica;fontSize=12;align=center;strokeWidth=1;spacing=6;spacingTop=-4;movable=1;resizable=1;rotatable=1;deletable=1;editable=1;locked=0;connectable=1;" parent="WIyWlLk6GJQsqaUBKTNV-1" vertex="1">
          <mxGeometry x="70" y="360" width="100" height="90" as="geometry" />
        </mxCell>
        <mxCell id="qETVqqP7taRen6nCok0K-4" value="&lt;div&gt;store key&lt;/div&gt;&lt;div&gt;separate to&lt;/div&gt;&lt;div&gt;value&lt;br&gt;&lt;/div&gt;" style="rhombus;whiteSpace=wrap;html=1;shadow=0;fontFamily=Helvetica;fontSize=12;align=center;strokeWidth=1;spacing=6;spacingTop=-4;movable=1;resizable=1;rotatable=1;deletable=1;editable=1;locked=0;connectable=1;" parent="WIyWlLk6GJQsqaUBKTNV-1" vertex="1">
          <mxGeometry x="250" y="360" width="100" height="90" as="geometry" />
        </mxCell>
        <mxCell id="qETVqqP7taRen6nCok0K-5" value="&lt;div&gt;store key&lt;/div&gt;&lt;div&gt;separate to&lt;/div&gt;&lt;div&gt;value&lt;br&gt;&lt;/div&gt;" style="rhombus;whiteSpace=wrap;html=1;shadow=0;fontFamily=Helvetica;fontSize=12;align=center;strokeWidth=1;spacing=6;spacingTop=-4;movable=1;resizable=1;rotatable=1;deletable=1;editable=1;locked=0;connectable=1;" parent="WIyWlLk6GJQsqaUBKTNV-1" vertex="1">
          <mxGeometry x="440" y="350" width="100" height="90" as="geometry" />
        </mxCell>
        <mxCell id="qETVqqP7taRen6nCok0K-6" value="&lt;div&gt;store key&lt;/div&gt;&lt;div&gt;separate to&lt;/div&gt;&lt;div&gt;value&lt;br&gt;&lt;/div&gt;" style="rhombus;whiteSpace=wrap;html=1;shadow=0;fontFamily=Helvetica;fontSize=12;align=center;strokeWidth=1;spacing=6;spacingTop=-4;movable=1;resizable=1;rotatable=1;deletable=1;editable=1;locked=0;connectable=1;" parent="WIyWlLk6GJQsqaUBKTNV-1" vertex="1">
          <mxGeometry x="670" y="350" width="100" height="90" as="geometry" />
        </mxCell>
        <mxCell id="qETVqqP7taRen6nCok0K-9" value="No" style="edgeStyle=orthogonalEdgeStyle;rounded=0;html=1;jettySize=auto;orthogonalLoop=1;fontSize=11;endArrow=block;endFill=0;endSize=8;strokeWidth=1;shadow=0;labelBackgroundColor=none;entryX=0.5;entryY=0;entryDx=0;entryDy=0;exitX=1;exitY=0.5;exitDx=0;exitDy=0;" parent="WIyWlLk6GJQsqaUBKTNV-1" source="qETVqqP7taRen6nCok0K-2" target="qETVqqP7taRen6nCok0K-6" edge="1">
          <mxGeometry x="-0.6667" y="10" relative="1" as="geometry">
            <mxPoint as="offset" />
            <mxPoint x="600" y="290" as="sourcePoint" />
            <mxPoint x="680" y="330" as="targetPoint" />
          </mxGeometry>
        </mxCell>
        <mxCell id="qETVqqP7taRen6nCok0K-10" value="&lt;div&gt;multimap&lt;/div&gt;" style="rounded=1;whiteSpace=wrap;html=1;fontSize=12;glass=0;strokeWidth=1;shadow=0;" parent="WIyWlLk6GJQsqaUBKTNV-1" vertex="1">
          <mxGeometry x="35" y="480" width="80" height="40" as="geometry" />
        </mxCell>
        <mxCell id="qETVqqP7taRen6nCok0K-11" value="multiset" style="rounded=1;whiteSpace=wrap;html=1;fontSize=12;glass=0;strokeWidth=1;shadow=0;" parent="WIyWlLk6GJQsqaUBKTNV-1" vertex="1">
          <mxGeometry x="125" y="480" width="80" height="40" as="geometry" />
        </mxCell>
        <mxCell id="qETVqqP7taRen6nCok0K-12" value="map" style="rounded=1;whiteSpace=wrap;html=1;fontSize=12;glass=0;strokeWidth=1;shadow=0;" parent="WIyWlLk6GJQsqaUBKTNV-1" vertex="1">
          <mxGeometry x="215" y="480" width="80" height="40" as="geometry" />
        </mxCell>
        <mxCell id="qETVqqP7taRen6nCok0K-13" value="set" style="rounded=1;whiteSpace=wrap;html=1;fontSize=12;glass=0;strokeWidth=1;shadow=0;" parent="WIyWlLk6GJQsqaUBKTNV-1" vertex="1">
          <mxGeometry x="305" y="480" width="80" height="40" as="geometry" />
        </mxCell>
        <mxCell id="qETVqqP7taRen6nCok0K-14" value="Yes" style="rounded=0;html=1;jettySize=auto;orthogonalLoop=1;fontSize=11;endArrow=block;endFill=0;endSize=8;strokeWidth=1;shadow=0;labelBackgroundColor=none;edgeStyle=orthogonalEdgeStyle;exitX=0;exitY=0.5;exitDx=0;exitDy=0;entryX=0.5;entryY=0;entryDx=0;entryDy=0;" parent="WIyWlLk6GJQsqaUBKTNV-1" source="WIyWlLk6GJQsqaUBKTNV-10" target="qETVqqP7taRen6nCok0K-3" edge="1">
          <mxGeometry x="-0.75" y="-10" relative="1" as="geometry">
            <mxPoint as="offset" />
            <mxPoint x="170" y="270" as="sourcePoint" />
            <mxPoint x="70" y="320" as="targetPoint" />
          </mxGeometry>
        </mxCell>
        <mxCell id="qETVqqP7taRen6nCok0K-15" value="unordered_multimap" style="rounded=1;whiteSpace=wrap;html=1;fontSize=12;glass=0;strokeWidth=1;shadow=0;" parent="WIyWlLk6GJQsqaUBKTNV-1" vertex="1">
          <mxGeometry x="390" y="480" width="115" height="40" as="geometry" />
        </mxCell>
        <mxCell id="qETVqqP7taRen6nCok0K-16" value="unordered_multiset" style="rounded=1;whiteSpace=wrap;html=1;fontSize=12;glass=0;strokeWidth=1;shadow=0;" parent="WIyWlLk6GJQsqaUBKTNV-1" vertex="1">
          <mxGeometry x="510" y="480" width="120" height="40" as="geometry" />
        </mxCell>
        <mxCell id="qETVqqP7taRen6nCok0K-17" value="unordered_map" style="rounded=1;whiteSpace=wrap;html=1;fontSize=12;glass=0;strokeWidth=1;shadow=0;" parent="WIyWlLk6GJQsqaUBKTNV-1" vertex="1">
          <mxGeometry x="640" y="480" width="85" height="40" as="geometry" />
        </mxCell>
        <mxCell id="qETVqqP7taRen6nCok0K-18" value="unordered_set" style="rounded=1;whiteSpace=wrap;html=1;fontSize=12;glass=0;strokeWidth=1;shadow=0;" parent="WIyWlLk6GJQsqaUBKTNV-1" vertex="1">
          <mxGeometry x="730" y="480" width="80" height="40" as="geometry" />
        </mxCell>
        <mxCell id="qETVqqP7taRen6nCok0K-21" value="No" style="edgeStyle=orthogonalEdgeStyle;rounded=0;html=1;jettySize=auto;orthogonalLoop=1;fontSize=11;endArrow=block;endFill=0;endSize=8;strokeWidth=1;shadow=0;labelBackgroundColor=none;entryX=0.5;entryY=0;entryDx=0;entryDy=0;exitX=1;exitY=0.5;exitDx=0;exitDy=0;" parent="WIyWlLk6GJQsqaUBKTNV-1" source="WIyWlLk6GJQsqaUBKTNV-10" target="qETVqqP7taRen6nCok0K-4" edge="1">
          <mxGeometry x="-0.6" y="10" relative="1" as="geometry">
            <mxPoint as="offset" />
            <mxPoint x="280" y="300" as="sourcePoint" />
            <mxPoint x="430" y="340" as="targetPoint" />
          </mxGeometry>
        </mxCell>
        <mxCell id="qETVqqP7taRen6nCok0K-22" value="Yes" style="rounded=0;html=1;jettySize=auto;orthogonalLoop=1;fontSize=11;endArrow=block;endFill=0;endSize=8;strokeWidth=1;shadow=0;labelBackgroundColor=none;edgeStyle=orthogonalEdgeStyle;exitX=0;exitY=0.5;exitDx=0;exitDy=0;entryX=0.5;entryY=0;entryDx=0;entryDy=0;" parent="WIyWlLk6GJQsqaUBKTNV-1" source="qETVqqP7taRen6nCok0K-2" target="qETVqqP7taRen6nCok0K-5" edge="1">
          <mxGeometry x="-0.75" y="-10" relative="1" as="geometry">
            <mxPoint as="offset" />
            <mxPoint x="520" y="270" as="sourcePoint" />
            <mxPoint x="480" y="340" as="targetPoint" />
          </mxGeometry>
        </mxCell>
        <mxCell id="qETVqqP7taRen6nCok0K-23" value="Yes" style="rounded=0;html=1;jettySize=auto;orthogonalLoop=1;fontSize=11;endArrow=block;endFill=0;endSize=8;strokeWidth=1;shadow=0;labelBackgroundColor=none;edgeStyle=orthogonalEdgeStyle;exitX=0;exitY=0.5;exitDx=0;exitDy=0;entryX=0.175;entryY=-0.075;entryDx=0;entryDy=0;entryPerimeter=0;" parent="WIyWlLk6GJQsqaUBKTNV-1" source="qETVqqP7taRen6nCok0K-3" target="qETVqqP7taRen6nCok0K-10" edge="1">
          <mxGeometry x="-0.75" y="-10" relative="1" as="geometry">
            <mxPoint as="offset" />
            <mxPoint x="60" y="390" as="sourcePoint" />
            <mxPoint x="20" y="460" as="targetPoint" />
          </mxGeometry>
        </mxCell>
        <mxCell id="qETVqqP7taRen6nCok0K-24" value="No" style="edgeStyle=orthogonalEdgeStyle;rounded=0;html=1;jettySize=auto;orthogonalLoop=1;fontSize=11;endArrow=block;endFill=0;endSize=8;strokeWidth=1;shadow=0;labelBackgroundColor=none;entryX=0.925;entryY=0;entryDx=0;entryDy=0;exitX=1;exitY=0.5;exitDx=0;exitDy=0;entryPerimeter=0;" parent="WIyWlLk6GJQsqaUBKTNV-1" source="qETVqqP7taRen6nCok0K-3" target="qETVqqP7taRen6nCok0K-11" edge="1">
          <mxGeometry x="-0.6" y="10" relative="1" as="geometry">
            <mxPoint as="offset" />
            <mxPoint x="180" y="400" as="sourcePoint" />
            <mxPoint x="220" y="470" as="targetPoint" />
          </mxGeometry>
        </mxCell>
        <mxCell id="qETVqqP7taRen6nCok0K-25" value="No" style="edgeStyle=orthogonalEdgeStyle;rounded=0;html=1;jettySize=auto;orthogonalLoop=1;fontSize=11;endArrow=block;endFill=0;endSize=8;strokeWidth=1;shadow=0;labelBackgroundColor=none;entryX=0.913;entryY=0;entryDx=0;entryDy=0;exitX=1;exitY=0.5;exitDx=0;exitDy=0;entryPerimeter=0;" parent="WIyWlLk6GJQsqaUBKTNV-1" source="qETVqqP7taRen6nCok0K-4" target="qETVqqP7taRen6nCok0K-13" edge="1">
          <mxGeometry x="-0.6" y="10" relative="1" as="geometry">
            <mxPoint as="offset" />
            <mxPoint x="360" y="350" as="sourcePoint" />
            <mxPoint x="389" y="425" as="targetPoint" />
          </mxGeometry>
        </mxCell>
        <mxCell id="qETVqqP7taRen6nCok0K-26" value="No" style="edgeStyle=orthogonalEdgeStyle;rounded=0;html=1;jettySize=auto;orthogonalLoop=1;fontSize=11;endArrow=block;endFill=0;endSize=8;strokeWidth=1;shadow=0;labelBackgroundColor=none;exitX=1;exitY=0.5;exitDx=0;exitDy=0;entryX=0.5;entryY=0;entryDx=0;entryDy=0;" parent="WIyWlLk6GJQsqaUBKTNV-1" source="qETVqqP7taRen6nCok0K-5" target="qETVqqP7taRen6nCok0K-16" edge="1">
          <mxGeometry x="-0.6" y="10" relative="1" as="geometry">
            <mxPoint as="offset" />
            <mxPoint x="590" y="410" as="sourcePoint" />
            <mxPoint x="560" y="490" as="targetPoint" />
          </mxGeometry>
        </mxCell>
        <mxCell id="qETVqqP7taRen6nCok0K-28" value="Yes" style="rounded=0;html=1;jettySize=auto;orthogonalLoop=1;fontSize=11;endArrow=block;endFill=0;endSize=8;strokeWidth=1;shadow=0;labelBackgroundColor=none;edgeStyle=orthogonalEdgeStyle;exitX=0;exitY=0.5;exitDx=0;exitDy=0;entryX=0.125;entryY=0.025;entryDx=0;entryDy=0;entryPerimeter=0;" parent="WIyWlLk6GJQsqaUBKTNV-1" source="qETVqqP7taRen6nCok0K-4" target="qETVqqP7taRen6nCok0K-12" edge="1">
          <mxGeometry x="-0.75" y="-10" relative="1" as="geometry">
            <mxPoint as="offset" />
            <mxPoint x="250" y="378" as="sourcePoint" />
            <mxPoint x="220" y="460" as="targetPoint" />
          </mxGeometry>
        </mxCell>
        <mxCell id="qETVqqP7taRen6nCok0K-30" value="Yes" style="rounded=0;html=1;jettySize=auto;orthogonalLoop=1;fontSize=11;endArrow=block;endFill=0;endSize=8;strokeWidth=1;shadow=0;labelBackgroundColor=none;edgeStyle=orthogonalEdgeStyle;exitX=0;exitY=0.5;exitDx=0;exitDy=0;entryX=0.157;entryY=-0.075;entryDx=0;entryDy=0;entryPerimeter=0;" parent="WIyWlLk6GJQsqaUBKTNV-1" source="qETVqqP7taRen6nCok0K-5" target="qETVqqP7taRen6nCok0K-15" edge="1">
          <mxGeometry x="-0.75" y="-10" relative="1" as="geometry">
            <mxPoint as="offset" />
            <mxPoint x="440" y="390" as="sourcePoint" />
            <mxPoint x="410" y="460" as="targetPoint" />
          </mxGeometry>
        </mxCell>
        <mxCell id="qETVqqP7taRen6nCok0K-31" value="Yes" style="rounded=0;html=1;jettySize=auto;orthogonalLoop=1;fontSize=11;endArrow=block;endFill=0;endSize=8;strokeWidth=1;shadow=0;labelBackgroundColor=none;edgeStyle=orthogonalEdgeStyle;exitX=0;exitY=0.5;exitDx=0;exitDy=0;entryX=0.118;entryY=0;entryDx=0;entryDy=0;entryPerimeter=0;" parent="WIyWlLk6GJQsqaUBKTNV-1" source="qETVqqP7taRen6nCok0K-6" target="qETVqqP7taRen6nCok0K-17" edge="1">
          <mxGeometry x="-0.8095" y="-15" relative="1" as="geometry">
            <mxPoint as="offset" />
            <mxPoint x="631" y="390" as="sourcePoint" />
            <mxPoint x="610" y="440" as="targetPoint" />
            <Array as="points">
              <mxPoint x="650" y="395" />
            </Array>
          </mxGeometry>
        </mxCell>
        <mxCell id="fkh2DZKltEk1FYS8dmUm-0" value="No" style="edgeStyle=orthogonalEdgeStyle;rounded=0;html=1;jettySize=auto;orthogonalLoop=1;fontSize=11;endArrow=block;endFill=0;endSize=8;strokeWidth=1;shadow=0;labelBackgroundColor=none;exitX=1;exitY=0.5;exitDx=0;exitDy=0;entryX=0.75;entryY=0;entryDx=0;entryDy=0;" edge="1" parent="WIyWlLk6GJQsqaUBKTNV-1" source="qETVqqP7taRen6nCok0K-6" target="qETVqqP7taRen6nCok0K-18">
          <mxGeometry x="-0.8095" y="15" relative="1" as="geometry">
            <mxPoint as="offset" />
            <mxPoint x="779.5" y="395" as="sourcePoint" />
            <mxPoint x="809.5" y="480" as="targetPoint" />
            <Array as="points">
              <mxPoint x="790" y="395" />
            </Array>
          </mxGeometry>
        </mxCell>
      </root>
    </mxGraphModel>
  </diagram>
</mxfile>
